# File created by Blade
# Date/Time:  Wed Jan 21 15:23:43 2015
# Frame Rate: 120.000 fps
#------------------------------------------------------
:FULLY-SPECIFIED
:DEGREES
886
root 10.332385 28.179353 -18.060697 -161.597872 2.133840 -193.114555
Spine 3.347575 3.512920 -17.818042
Head -20.028133 -4.592152 4.377467
LeftShoulder -3.664788 -26.788929 0.721026
LeftArm -17.053605 46.384123 -82.202018
LeftForeArm 25.783644 -0.000000 51.112002
LeftHand 0.649139 0.000000 -0.458918
LeftHandThumb1 -26.253704 0.000000 33.147579
RightShoulder -2.687909 -9.464719 5.727554
RightArm 18.584591 -32.679692 63.424901
RightForeArm -29.987697 0.000000 23.495673
RightHand 4.256984 -0.000000 6.335205
RightHandThumb1 -24.326973 -0.000000 -32.862282
LeftUpLeg -55.193651 13.719042 -21.469948
LeftLeg 72.006894 -0.000000 -0.000000
LeftFoot -53.676573 15.588597 -13.768293
LeftToeBase 25.955371 -0.000000 -0.000000
RightUpLeg -19.721595 -41.172377 -39.749035
RightLeg -3.821076 -0.000000 0.000000
RightFoot 5.048887 -24.430993 16.119801
RightToeBase 26.990950 -0.000000 -0.000000
887
root 10.338889 28.188906 -18.068355 -161.620899 2.092823 -193.112340
Spine 3.363717 3.500294 -17.830540
Head -20.002582 -4.602095 4.384084
LeftShoulder -3.674506 -26.779817 0.725185
LeftArm -17.039484 46.362654 -82.206880
LeftForeArm 25.794009 -0.000000 51.071723
LeftHand 0.649871 -0.000000 -0.462306
LeftHandThumb1 -26.253704 0.000000 33.147579
RightShoulder -2.700499 -9.468664 5.733427
RightArm 18.602166 -32.680312 63.437910
RightForeArm -30.030604 -0.000000 23.472815
RightHand 4.198397 0.000000 6.360294
RightHandThumb1 -24.326973 -0.000000 -32.862282
LeftUpLeg -55.121777 13.707931 -21.433499
LeftLeg 71.952462 -0.000000 -0.000000
LeftFoot -53.646566 15.577955 -13.760095
LeftToeBase 25.959564 -0.000000 -0.000000
RightUpLeg -19.638488 -41.145364 -39.774836
RightLeg -3.802543 -0.000000 0.000000
RightFoot 4.942745 -24.424811 15.924885
RightToeBase 27.175229 -0.000000 -0.000000
888
root 10.346220 28.199269 -18.074435 -161.633657 2.067913 -193.101763
Spine 3.365715 3.501287 -17.844120
Head -19.982484 -4.618591 4.392296
LeftShoulder -3.689560 -26.756875 0.734082
LeftArm -16.999573 46.334875 -82.199599
LeftForeArm 25.808428 -0.000000 51.028725
LeftHand 0.642365 -0.000000 -0.459587
LeftHandThumb1 -26.253704 0.000000 33.147579
RightShoulder -2.707607 -9.531397 5.743262
RightArm 18.675906 -32.665107 63.415353
RightForeArm -29.995633 -0.000000 23.451580
RightHand 4.218260 -0.000000 6.328403
RightHandThumb1 -24.326973 -0.000000 -32.862282
LeftUpLeg -55.069448 13.710684 -21.398446
LeftLeg 71.901417 -0.000000 -0.000000
LeftFoot -53.624596 15.567544 -13.763680
LeftToeBase 25.947452 -0.000000 -0.000000
RightUpLeg -19.584601 -41.094407 -39.786278
RightLeg -3.772726 -0.000000 0.000000
RightFoot 4.836008 -24.385166 15.860754
RightToeBase 26.966381 -0.000000 -0.000000
889
root 10.354256 28.209956 -18.080477 -161.642822 2.043003 -193.083235
Spine 3.359979 3.513326 -17.850112
Head -19.950030 -4.636417 4.407817
LeftShoulder -3.690604 -26.717151 0.736259
LeftArm -16.941953 46.314782 -82.182598
LeftForeArm 25.829040 -0.000000 50.976445
LeftHand 0.653427 -0.000000 -0.469838
LeftHandThumb1 -26.253704 0.000000 33.147579
RightShoulder -2.738254 -9.628661 5.779999
RightArm 18.792734 -32.698081 63.318972
RightForeArm -29.992820 0.000000 23.472719
RightHand 4.120844 -0.000000 6.285504
RightHandThumb1 -24.326973 -0.000000 -32.862282
LeftUpLeg -55.020279 13.719049 -21.358058
LeftLeg 71.847473 -0.000000 -0.000000
LeftFoot -53.607670 15.541752 -13.766426
LeftToeBase 26.040654 -0.000000 -0.000000
RightUpLeg -19.542625 -41.049960 -39.776164
RightLeg -3.751201 -0.000000 0.000000
RightFoot 4.741611 -24.342945 15.974255
RightToeBase 26.442472 -0.000000 -0.000000
890
root 10.361143 28.220592 -18.085070 -161.639674 2.025229 -193.062868
Spine 3.342061 3.513913 -17.850469
Head -19.925648 -4.641146 4.414032
LeftShoulder -3.671698 -26.757348 0.730923
LeftArm -17.039284 46.255583 -82.253133
LeftForeArm 25.880042 -0.000000 50.975126
LeftHand 0.595353 -0.000000 -0.475565
LeftHandThumb1 -26.253704 0.000000 33.147579
RightShoulder -2.744174 -9.660387 5.788921
RightArm 18.833563 -32.734591 63.282727
RightForeArm -29.963387 -0.000000 23.468136
RightHand 4.140960 -0.000000 6.266484
RightHandThumb1 -24.326973 -0.000000 -32.862282
LeftUpLeg -54.987610 13.724746 -21.322834
LeftLeg 71.792347 -0.000000 -0.000000
LeftFoot -53.579666 15.544589 -13.757000
LeftToeBase 26.005097 -0.000000 -0.000000
RightUpLeg -19.526791 -41.007809 -39.758642
RightLeg -3.710623 -0.000000 0.000000
RightFoot 4.646171 -24.316446 15.939870
RightToeBase 25.931285 -0.000000 -0.000000
891
root 10.368113 28.231386 -18.089452 -161.637858 2.012899 -193.053522
Spine 3.322600 3.513928 -17.869856
Head -19.904271 -4.632517 4.422100
LeftShoulder -3.696753 -26.739406 0.757452
LeftArm -17.017372 46.215225 -82.269335
LeftForeArm 25.932607 -0.000000 50.935579
LeftHand 0.610863 -0.000000 -0.470829
LeftHandThumb1 -26.253704 0.000000 33.147579
RightShoulder -2.717922 -9.636489 5.786972
RightArm 18.782268 -32.766439 63.314388
RightForeArm -29.930572 -0.000000 23.469879
RightHand 4.195918 -0.000000 6.235309
RightHandThumb1 -24.326973 -0.000000 -32.862282
LeftUpLeg -54.950878 13.726299 -21.296166
LeftLeg 71.735892 -0.000000 -0.000000
LeftFoot -53.552132 15.528757 -13.756417
LeftToeBase 25.976268 -0.000000 -0.000000
RightUpLeg -19.513905 -40.958772 -39.752202
RightLeg -3.672588 -0.000000 0.000000
RightFoot 4.561115 -24.299214 15.859590
RightToeBase 25.888451 -0.000000 -0.000000
892
root 10.375699 28.242073 -18.096583 -161.658874 1.987242 -193.055614
Spine 3.333797 3.530739 -17.894625
Head -19.906354 -4.675760 4.425073
LeftShoulder -3.670285 -26.746644 0.756323
LeftArm -17.044339 46.181026 -82.295855
LeftForeArm 25.950964 -0.000000 50.916714
LeftHand 0.610250 -0.000000 -0.471120
LeftHandThumb1 -26.253704 0.000000 33.147579
RightShoulder -2.703096 -9.576922 5.781911
RightArm 18.665347 -32.764679 63.414993
RightForeArm -29.932275 0.000000 23.481375
RightHand 4.234645 0.000000 6.211113
RightHandThumb1 -24.326973 -0.000000 -32.862282
LeftUpLeg -54.882400 13.733576 -21.268222
LeftLeg 71.676805 -0.000000 -0.000000
LeftFoot -53.523349 15.503472 -13.744971
LeftToeBase 25.993866 -0.000000 -0.000000
RightUpLeg -19.464114 -40.974047 -39.741862
RightLeg -3.673907 -0.000000 0.000000
RightFoot 4.506801 -24.263330 15.686921
RightToeBase 26.075575 -0.000000 -0.000000
893
root 10.383527 28.253226 -18.102027 -161.661477 1.984313 -193.052388
Spine 3.322503 3.549443 -17.925727
Head -19.905278 -4.667563 4.435892
LeftShoulder -3.672898 -26.759590 0.775165
LeftArm -17.075899 46.162823 -82.332680
LeftForeArm 25.945811 -0.000000 50.891562
LeftHand 0.619254 -0.000000 -0.448142
LeftHandThumb1 -26.253704 0.000000 33.147579
RightShoulder -2.714146 -9.576595 5.791938
RightArm 18.675023 -32.785184 63.422021
RightForeArm -30.011772 -0.000000 23.476769
RightHand 4.260917 -0.000000 6.259385
RightHandThumb1 -24.326973 -0.000000 -32.862282
LeftUpLeg -54.841479 13.750373 -21.248517
LeftLeg 71.616527 -0.000000 -0.000000
LeftFoot -53.489337 15.492401 -13.746252
LeftToeBase 25.969298 -0.000000 -0.000000
RightUpLeg -19.462158 -40.949779 -39.720646
RightLeg -3.656034 -0.000000 0.000000
RightFoot 4.454760 -24.325422 15.751789
RightToeBase 25.748129 -0.000000 -0.000000
